<svg width="18" height="17" viewBox="0 0 18 17" fill="none" xmlns="http://www.w3.org/2000/svg">
<path fill-rule="evenodd" clip-rule="evenodd" d="M3.68066 7.79167C3.68066 5.21434 5.77 3.125 8.34733 3.125C10.9247 3.125 13.014 5.21434 13.014 7.79167C13.014 9.04174 12.5225 10.177 11.7222 11.0148C11.6946 11.037 11.6679 11.061 11.6422 11.0866C11.6166 11.1123 11.5927 11.139 11.5704 11.1665C10.7326 11.9668 9.59738 12.4583 8.34733 12.4583C5.77 12.4583 3.68066 10.369 3.68066 7.79167ZM12.3012 13.1598C11.195 13.976 9.8275 14.4583 8.34733 14.4583C4.66543 14.4583 1.68066 11.4736 1.68066 7.79167C1.68066 4.10977 4.66543 1.125 8.34733 1.125C12.0292 1.125 15.014 4.10977 15.014 7.79167C15.014 9.27187 14.5316 10.6394 13.7154 11.7456L16.1377 14.1679C16.5282 14.5584 16.5282 15.1916 16.1377 15.5821C15.7472 15.9726 15.114 15.9726 14.7235 15.5821L12.3012 13.1598Z" fill="#2D3648"/>
</svg>
